<?xml version="1.0" encoding="UTF-8" standalone="no"?>
<svg width="9px" height="9px" viewBox="0 0 9 9" version="1.1" xmlns="http://www.w3.org/2000/svg" xmlns:xlink="http://www.w3.org/1999/xlink">
    <!-- Generator: Sketch 40 (33762) - http://www.bohemiancoding.com/sketch -->
    <title>icon/arrow_right</title>
    <desc>Created with Sketch.</desc>
    <defs></defs>
    <g id="1201" stroke="none" stroke-width="1" fill="none" fill-rule="evenodd">
        <g id="nav-展开" transform="translate(-1234.000000, -104.000000)" fill="#697B8C">
            <g id="待处理任务" transform="translate(62.000000, 92.000000)">
                <g id="more" transform="translate(1129.810162, 6.000000)">
                    <path d="M50.9561684,10.678011 C51.0345855,10.4877062 51.00891,10.2548684 50.8700469,10.1018347 L47.7218449,6.62856436 C47.5501692,6.43927355 47.2795434,6.44827114 47.1169722,6.6482139 C46.9547029,6.84845551 46.962142,7.16412877 47.1338176,7.35376113 L49.9585699,10.4707463 L47.1449626,13.6339896 C46.9749888,13.8252977 46.9698464,14.1409709 47.1338176,14.3395368 C47.2176699,14.44136 47.329723,14.4922289 47.4418219,14.4922289 C47.5487417,14.4922289 47.6556982,14.4456827 47.7386812,14.3525369 L50.8583438,10.8453041 C50.8643463,10.8383558 50.8666156,10.8286965 50.8726181,10.8214066 C50.8771932,10.8163688 50.8820153,10.8127293 50.8865813,10.8073926 C50.9108293,10.7777956 50.923667,10.7415491 50.9402013,10.7075973 C50.9447581,10.6972869 50.9521789,10.6886629 50.9561684,10.678011 Z M46.9561684,10.678011 C47.0345855,10.4877062 47.00891,10.2548684 46.8700469,10.1018347 L43.7218449,6.62856436 C43.5501692,6.43927355 43.2795434,6.44827114 43.1169722,6.6482139 C42.9547029,6.84845551 42.962142,7.16412877 43.1338176,7.35376113 L45.9585699,10.4707463 L43.1449626,13.6339896 C42.9749888,13.8252977 42.9698464,14.1409709 43.1338176,14.3395368 C43.2176699,14.44136 43.329723,14.4922289 43.4418219,14.4922289 C43.5487417,14.4922289 43.6556982,14.4456827 43.7386812,14.3525369 L46.8583438,10.8453041 C46.8643463,10.8383558 46.8666156,10.8286965 46.8726181,10.8214066 C46.8771932,10.8163688 46.8820153,10.8127293 46.8865813,10.8073926 C46.9108293,10.7777956 46.923667,10.7415491 46.9402013,10.7075973 C46.9447581,10.6972869 46.9521789,10.6886629 46.9561684,10.678011 Z" id="icon/arrow_right"></path>
                </g>
            </g>
        </g>
    </g>
</svg>