<?xml version="1.0" encoding="UTF-8"?>
<svg width="17px" height="15px" viewBox="0 0 17 15" version="1.1" xmlns="http://www.w3.org/2000/svg" xmlns:xlink="http://www.w3.org/1999/xlink">
    <!-- Generator: Sketch 39.1 (31720) - http://www.bohemiancoding.com/sketch -->
    <title>icon/list disable</title>
    <desc>Created with Sketch.</desc>
    <defs></defs>
    <g id="Page-1" stroke="none" stroke-width="1" fill="none" fill-rule="evenodd">
        <g id="icon/list-disable" fill="#E9E9ED">
            <g id="Group">
                <path d="M1.69882213,0 C0.760584139,0 0,0.744251798 0,1.66228579 L0,13.2983087 C0,14.2163652 0.760584139,14.9605945 1.69882213,14.9605945 L15.2895804,14.9605945 C16.2278184,14.9605945 16.9884025,14.2163652 16.9884025,13.2983087 L16.9884025,1.66228579 C16.9884025,0.74425182 16.2278184,0 15.2895804,0 L1.69882213,0 Z M5.22979041,8 C3.99830915,8 3,8.98896961 3,10.209013 C3,11.4290114 3.99828651,12.4180259 5.22979041,12.4180259 C6.46122636,12.4180259 7.45951287,11.428989 7.45951287,10.209013 C7.45951287,8.98899204 6.46120372,8 5.22979041,8 Z M7.64843575,3.18630497 C7.20592065,2.86654486 6.93483033,3.020983 6.68498689,3.18630497 L4.85286207,5.00484662 L4.02013365,4.17823679 C3.7702902,3.93026506 3.35393734,3.93026506 3.18738258,4.17823679 C2.93753914,4.42620852 2.93753914,4.83950221 3.18738258,5.00484662 L4.51979787,6.32739991 C4.60308656,6.41009456 4.72286646,6.47721523 5.01946209,6.49272188 C5.31601244,6.50825096 5.26930553,6.41009456 5.51912631,6.32739991 L7.76755871,4.09556458 C8.01740217,3.84757039 7.89825652,3.35162692 7.64843575,3.18630497 Z M13.5766958,4 L8.7939721,4 C8.36072136,4 8,4.35319702 8,4.7889316 C8,5.2276957 8.35542097,5.5778632 8.7939721,5.5778632 L13.5766958,5.5778632 C14.0098786,5.5778632 14.3706679,5.22466618 14.3706679,4.7889316 C14.3706679,4.35018993 14.015179,4 13.5766958,4 Z M13.5766958,9 L8.7939721,9 C8.36072136,9 8,9.35319702 8,9.7889316 C8,10.2276957 8.35542097,10.5778632 8.7939721,10.5778632 L13.5766958,10.5778632 C14.0098786,10.5778632 14.3706679,10.2246662 14.3706679,9.7889316 C14.3706679,9.35018993 14.015179,9 13.5766958,9 Z" id="Combined-Shape"></path>
                <path d="M5.22979041,11.1557488 C4.70201596,11.1557488 4.27417889,10.7318855 4.27417889,10.2090129 C4.27417889,9.68614042 4.70201596,9.26227706 5.22979041,9.26227706 C5.75751955,9.26227706 6.18533398,9.68614042 6.18533398,10.2090129 C6.18533398,10.7318855 5.75749689,11.1557488 5.22979041,11.1557488 L5.22979041,11.1557488 Z" id="Shape"></path>
            </g>
        </g>
    </g>
</svg>