<?xml version="1.0" encoding="UTF-8" standalone="no"?>
<svg width="19px" height="19px" viewBox="0 0 19 19" version="1.1" xmlns="http://www.w3.org/2000/svg" xmlns:xlink="http://www.w3.org/1999/xlink">
    <!-- Generator: Sketch 40 (33762) - http://www.bohemiancoding.com/sketch -->
    <title>icon/user</title>
    <desc>Created with Sketch.</desc>
    <defs></defs>
    <g id="1201" stroke="none" stroke-width="1" fill="none" fill-rule="evenodd">
        <g id="nav-展开" transform="translate(-1144.000000, -30.000000)" fill="#8CA0B3">
            <g id="bg">
                <g id="top-bar" transform="translate(714.969226, 19.279108)">
                    <g id="icon/user" transform="translate(427.000000, 8.000000)">
                        <path d="M3,4.99508929 C3,3.8932319 3.8926228,3 4.99508929,3 L19.0049107,3 C20.1067681,3 21,3.8926228 21,4.99508929 L21,19.0049107 C21,20.1067681 20.1073772,21 19.0049107,21 L4.99508929,21 C3.8932319,21 3,20.1073772 3,19.0049107 L3,4.99508929 Z M12,12 C13.925,12 15.5,10.425 15.5,8.5 C15.5,6.575 13.925,5 12,5 C10.075,5 8.5,6.575 8.5,8.5 C8.5,10.425 10.075,12 12,12 Z M12,13.75 C9.6375,13.75 5,14.8875 5,17.25 L5,19 L19,19 L19,17.25 C19,14.8875 14.3625,13.75 12,13.75 Z"></path>
                    </g>
                </g>
            </g>
        </g>
    </g>
</svg>