<?xml version="1.0" encoding="UTF-8"?>
<svg width="10px" height="10px" viewBox="0 0 10 10" version="1.1" xmlns="http://www.w3.org/2000/svg" xmlns:xlink="http://www.w3.org/1999/xlink">
    <!-- Generator: Sketch 39.1 (31720) - http://www.bohemiancoding.com/sketch -->
    <title>icon/loading</title>
    <desc>Created with Sketch.</desc>
    <defs></defs>
    <g id="Page-1" stroke="none" stroke-width="1" fill="none" fill-rule="evenodd">
        <g id="icon/loading" fill="#666666">
            <path d="M0,5 C0,7.76142375 2.23857625,10 5,10 C7.76142375,10 10,7.76142375 10,5 C10,2.23857625 7.76142375,0 5,0 C4.78758279,0 4.61538462,0.172198173 4.61538462,0.384615385 C4.61538462,0.597032596 4.78758279,0.769230769 5,0.769230769 C7.33658933,0.769230769 9.23076923,2.66341067 9.23076923,5 C9.23076923,7.33658933 7.33658933,9.23076923 5,9.23076923 C2.66341067,9.23076923 0.769230769,7.33658933 0.769230769,5 C0.769230769,4.78758279 0.597032596,4.61538462 0.384615385,4.61538462 C0.172198173,4.61538462 0,4.78758279 0,5 L0,5 Z" id="el-icon-loading"></path>
        </g>
    </g>
</svg>