<?xml version="1.0" encoding="UTF-8"?>
<svg width="16px" height="10px" viewBox="0 0 16 10" version="1.1" xmlns="http://www.w3.org/2000/svg" xmlns:xlink="http://www.w3.org/1999/xlink">
    <!-- Generator: Sketch 39.1 (31720) - http://www.bohemiancoding.com/sketch -->
    <title>icon/system normal</title>
    <desc>Created with Sketch.</desc>
    <defs></defs>
    <g id="Page-1" stroke="none" stroke-width="1" fill="none" fill-rule="evenodd">
        <g id="icon/system-normal" fill="#697B8C">
            <path d="M10.9090909,4.36363636 C12.1454545,4.36363636 13.0909091,3.41818182 13.0909091,2.18181818 C13.0909091,0.945454545 12.1454545,0 10.9090909,0 C9.67272727,0 8.72727273,0.945454545 8.72727273,2.18181818 C8.72727273,3.41818182 9.67272727,4.36363636 10.9090909,4.36363636 L10.9090909,4.36363636 Z M5.09090909,4.36363636 C6.32727273,4.36363636 7.27272727,3.41818182 7.27272727,2.18181818 C7.27272727,0.945454545 6.32727273,0 5.09090909,0 C3.85454545,0 2.90909091,0.945454545 2.90909091,2.18181818 C2.90909091,3.41818182 3.85454545,4.36363636 5.09090909,4.36363636 L5.09090909,4.36363636 Z M5.09090909,5.81818182 C3.41818182,5.81818182 0,6.69090909 0,8.36363636 L0,10.1818182 L10.1818182,10.1818182 L10.1818182,8.36363636 C10.1818182,6.69090909 6.76363636,5.81818182 5.09090909,5.81818182 L5.09090909,5.81818182 Z M10.9090909,5.81818182 C10.6909091,5.81818182 10.4727273,5.81818182 10.1818182,5.89090909 C11.0545455,6.47272727 11.6363636,7.34545455 11.6363636,8.36363636 L11.6363636,10.1818182 L16,10.1818182 L16,8.36363636 C16,6.69090909 12.5818182,5.81818182 10.9090909,5.81818182 L10.9090909,5.81818182 Z" id="iconï¼acount-copy-2"></path>
        </g>
    </g>
</svg>