<?xml version="1.0" encoding="UTF-8" standalone="no"?>
<svg width="17px" height="12px" viewBox="0 0 17 12" version="1.1" xmlns="http://www.w3.org/2000/svg" xmlns:xlink="http://www.w3.org/1999/xlink">
    <!-- Generator: Sketch 40 (33762) - http://www.bohemiancoding.com/sketch -->
    <title>icon/excel</title>
    <desc>Created with Sketch.</desc>
    <defs></defs>
    <g id="1201" stroke="none" stroke-width="1" fill="none" fill-rule="evenodd">
        <g id="任务管理-" transform="translate(-1152.000000, -300.000000)" fill="#697B8C">
            <g id="待处理任务" transform="translate(62.000000, 283.000000)">
                <g id="导出" transform="translate(1090.000000, 15.000000)">
                    <path d="M7.06394177,5.8017196 L6.34522177,6.8660396 L5.62732463,5.8017196 L4.21575892,5.8017196 L5.62732463,7.93118246 L4.21575892,10.0606453 L5.62732463,10.0606453 L6.34522177,8.99559388 L7.06394177,10.0606453 L8.47468463,10.0606453 L8.20295892,9.65031388 L7.63948463,8.83038246 C7.64177035,8.82425674 7.06394177,7.93118246 7.06394177,7.93118246 L8.47468463,5.8017196 L7.06394177,5.8017196 Z M11.0587303,7.58631388 L11.0587303,11.4851025 C11.0495875,12.1277539 10.5273475,12.6469767 9.88167892,12.6469767 L5.16670749,12.6469767 L3.98663892,12.6469767 L2.80885606,12.6469767 C2.15788463,12.6469767 1.62878749,12.118611 1.62878749,11.4676396 L1.62869606,4.39472531 C1.62869606,3.74384531 2.15788463,3.2154796 2.80885606,3.2154796 L3.98663892,3.2154796 L5.16670749,3.2154796 L9.88167892,3.2154796 C10.5273475,3.2154796 11.0495875,3.73397103 11.0587303,4.37726246 L11.0587303,4.89502246 C11.1614961,4.85159388 11.2627075,4.81127388 11.3951875,4.76098817 C11.5505246,4.70238246 11.7096103,4.65365103 11.8679646,4.60181103 L11.8679646,3.76743388 C11.8565361,3.01369674 11.2452446,2.40615388 10.4892218,2.40615388 L4.96492463,2.40615388 L3.58161035,2.40615388 L2.20204463,2.40615388 C1.43916463,2.40615388 0.819461774,3.02512531 0.819461774,3.78727388 L0.819461774,12.0751825 C0.819461774,12.837331 1.43916463,13.4563025 2.20204463,13.4563025 L3.58161035,13.4563025 L4.96492463,13.4563025 L10.4892218,13.4563025 C11.2452446,13.4563025 11.8565361,12.8479367 11.8679646,12.0950225 L11.8679646,7.35490817 C11.6548446,7.39522817 11.4439189,7.44624531 11.2391189,7.51326246 C11.1774961,7.53374246 11.1196218,7.56345674 11.0587303,7.58631388 L11.0587303,7.58631388 Z M16.7733818,5.92578817 C16.2068903,5.4925996 15.6373818,5.06471388 15.0671418,4.63536531 C14.5273475,4.22805103 13.9852675,3.82521674 13.4394389,3.41186817 L13.4394389,4.5089196 C13.4394389,4.71829103 13.2810846,4.84089674 13.0907303,4.86302246 C12.9735189,4.87664531 12.8638961,4.88734246 12.7473246,4.89191388 C12.6857018,4.89575388 12.6248103,4.8980396 12.5616332,4.90334246 C12.5380446,4.9063596 12.5143646,4.90937674 12.4907761,4.91166246 C12.4862046,4.91166246 12.4800789,4.91321674 12.4724903,4.91477103 C12.1649246,4.96423388 11.8656789,5.05639388 11.5741132,5.16674817 C11.4180446,5.22535388 11.3342961,5.25808531 11.1744789,5.33808531 C11.0510503,5.39824531 10.9315532,5.46370817 10.8173589,5.53831388 C10.7526275,5.58174246 10.6864332,5.62590246 10.6239875,5.6730796 C10.6132903,5.6813996 10.6049703,5.68597103 10.6003989,5.69136531 C10.5972903,5.69365103 10.5927189,5.69666817 10.5881475,5.70050817 C10.5615418,5.72254246 10.5356675,5.74238246 10.5090618,5.7652396 C10.4062046,5.85200531 10.3057246,5.94416531 10.2105475,6.04153674 C9.99358749,6.26544531 9.86193035,6.4237996 9.70586177,6.66434817 C9.55052463,6.9018796 9.41575892,7.15312531 9.30074177,7.41506817 C9.2969932,7.42494246 9.2931532,7.4317996 9.29159892,7.43783388 C9.2848332,7.45465674 9.27642177,7.47065674 9.27111892,7.48885103 C9.25813606,7.5201196 9.24524463,7.55129674 9.2329932,7.58402817 C9.20940463,7.64802817 9.1849932,7.71349103 9.16369035,7.77895388 C9.1165132,7.91673674 9.0723532,8.05534246 9.03349606,8.19696531 C8.95441035,8.48926246 8.88199892,8.8333996 8.8553932,9.08089674 C8.85310749,9.10677103 8.85082177,9.13182246 8.84926749,9.15623388 C8.86526749,9.13182246 8.88282177,9.10677103 8.90110749,9.0823596 C9.22385035,8.62402817 9.5862732,8.18169674 10.0095875,7.81168531 C10.4397589,7.43481674 10.9292675,7.11509103 11.4736332,6.93314817 C11.7553246,6.84025674 12.0537475,6.78841674 12.3514389,6.7770796 C12.6392561,6.76565103 12.9118046,6.80441674 13.1943189,6.85543388 C13.3449932,6.88286246 13.4577246,7.04962817 13.4546161,7.19655388 C13.4447418,7.60085103 13.4363303,8.00432531 13.4271875,8.4077996 C14.5433475,7.58101103 15.6579532,6.7533996 16.7733818,5.92578817 L16.7733818,5.92578817 Z" id="icon/excel"></path>
                </g>
            </g>
        </g>
    </g>
</svg>