<?xml version="1.0" encoding="UTF-8" standalone="no"?>
<svg width="17px" height="11px" viewBox="0 0 17 11" version="1.1" xmlns="http://www.w3.org/2000/svg" xmlns:xlink="http://www.w3.org/1999/xlink">
    <!-- Generator: Sketch 40 (33762) - http://www.bohemiancoding.com/sketch -->
    <title>icon／selected/acount</title>
    <desc>Created with Sketch.</desc>
    <defs></defs>
    <g id="1201" stroke="none" stroke-width="1" fill="none" fill-rule="evenodd">
        <g id="任务管理-" transform="translate(-11.000000, -224.000000)" fill="#2DD1AC">
            <g id="nav">
                <g id="menu" transform="translate(10.768326, 136.000000)">
                    <path d="M11.5533023,92.6727273 C12.7896659,92.6727273 13.7351205,91.7272727 13.7351205,90.4909091 C13.7351205,89.2545455 12.7896659,88.3090909 11.5533023,88.3090909 C10.3169386,88.3090909 9.37148409,89.2545455 9.37148409,90.4909091 C9.37148409,91.7272727 10.3169386,92.6727273 11.5533023,92.6727273 L11.5533023,92.6727273 Z M5.73512046,92.6727273 C6.97148409,92.6727273 7.91693864,91.7272727 7.91693864,90.4909091 C7.91693864,89.2545455 6.97148409,88.3090909 5.73512046,88.3090909 C4.49875682,88.3090909 3.55330228,89.2545455 3.55330228,90.4909091 C3.55330228,91.7272727 4.49875682,92.6727273 5.73512046,92.6727273 L5.73512046,92.6727273 Z M5.73512046,94.1272727 C4.06239318,94.1272727 0.644211367,95 0.644211367,96.6727273 L0.644211367,98.4909091 L10.8260295,98.4909091 L10.8260295,96.6727273 C10.8260295,95 7.40784773,94.1272727 5.73512046,94.1272727 L5.73512046,94.1272727 Z M11.5533023,94.1272727 C11.3351205,94.1272727 11.1169386,94.1272727 10.8260295,94.2 C11.6987568,94.7818182 12.280575,95.6545455 12.280575,96.6727273 L12.280575,98.4909091 L16.6442114,98.4909091 L16.6442114,96.6727273 C16.6442114,95 13.2260295,94.1272727 11.5533023,94.1272727 L11.5533023,94.1272727 Z" id="icon／selected/acount"></path>
                </g>
            </g>
        </g>
    </g>
</svg>