<?xml version="1.0" encoding="UTF-8" standalone="no"?>
<svg width="20px" height="23px" viewBox="0 0 20 23" version="1.1" xmlns="http://www.w3.org/2000/svg" xmlns:xlink="http://www.w3.org/1999/xlink">
    <!-- Generator: Sketch 40 (33762) - http://www.bohemiancoding.com/sketch -->
    <title>icon/hover/notice</title>
    <desc>Created with Sketch.</desc>
    <defs></defs>
    <g id="1201" stroke="none" stroke-width="1" fill="none" fill-rule="evenodd">
        <g id="nav-展开" transform="translate(-1080.000000, -29.000000)" fill="#6C8092">
            <g id="bg">
                <g id="top-bar" transform="translate(714.969226, 19.279108)">
                    <path d="M375,32 C376.21,32 377.2,31.01 377.2,29.8 L372.8,29.8 C372.8,31.01 373.79,32 375,32 L375,32 Z M382.15,25.4 L382.15,19.35 C382.15,15.94 379.84,13.19 376.65,12.42 L376.65,11.65 C376.65,10.77 375.88,10 375,10 C374.12,10 373.35,10.77 373.35,11.65 L373.35,12.42 C370.16,13.19 367.85,15.94 367.85,19.35 L367.85,25.4 L365.65,27.6 L365.65,28.7 L384.35,28.7 L384.35,27.6 L382.15,25.4 L382.15,25.4 Z" id="icon/hover/notice"></path>
                </g>
            </g>
        </g>
    </g>
</svg>