<?xml version="1.0" encoding="UTF-8" standalone="no"?>
<svg width="17px" height="16px" viewBox="0 0 17 16" version="1.1" xmlns="http://www.w3.org/2000/svg" xmlns:xlink="http://www.w3.org/1999/xlink">
    <!-- Generator: Sketch 40 (33762) - http://www.bohemiancoding.com/sketch -->
    <title>icon/selected/misson</title>
    <desc>Created with Sketch.</desc>
    <defs></defs>
    <g id="1201" stroke="none" stroke-width="1" fill="none" fill-rule="evenodd">
        <g id="任务管理-" transform="translate(-11.000000, -179.000000)" fill="#2DD1AC">
            <g id="nav">
                <g id="menu" transform="translate(10.768326, 136.000000)">
                    <path d="M14.8664336,43 L2.42198914,43 C1.44421137,43 0.644211367,43.8 0.644211367,44.7777778 L0.644211367,57.2222222 C0.644211367,58.2 1.44421137,59 2.42198914,59 L14.8664336,59 C15.8442114,59 16.6442114,58.2 16.6442114,57.2222222 L16.6442114,44.7777778 C16.6442114,43.8 15.8442114,43 14.8664336,43 L14.8664336,43 Z M13.0886558,48.3333333 L4.19976692,48.3333333 L4.19976692,46.5555556 L13.0886558,46.5555556 L13.0886558,48.3333333 L13.0886558,48.3333333 Z M13.0886558,51.8888889 L4.19976692,51.8888889 L4.19976692,50.1111111 L13.0886558,50.1111111 L13.0886558,51.8888889 L13.0886558,51.8888889 Z M10.4219891,55.4444444 L4.19976692,55.4444444 L4.19976692,53.6666667 L10.4219891,53.6666667 L10.4219891,55.4444444 L10.4219891,55.4444444 Z" id="icon/selected/misson"></path>
                </g>
            </g>
        </g>
    </g>
</svg>