<?xml version="1.0" encoding="UTF-8" standalone="no"?>
<svg width="19px" height="19px" viewBox="0 0 19 19" version="1.1" xmlns="http://www.w3.org/2000/svg" xmlns:xlink="http://www.w3.org/1999/xlink">
    <!-- Generator: Sketch 40 (33762) - http://www.bohemiancoding.com/sketch -->
    <title>icon/hover/user</title>
    <desc>Created with Sketch.</desc>
    <defs></defs>
    <g id="1201" stroke="none" stroke-width="1" fill="none" fill-rule="evenodd">
        <g id="nav-展开" transform="translate(-1144.000000, -30.000000)" fill="#6C8092">
            <g id="bg">
                <g id="top-bar" transform="translate(714.969226, 19.279108)">
                    <g id="icon/user" transform="translate(430.000000, 11.000000)">
                        <path d="M0,1.99508929 C0,0.893231902 0.892622799,0 1.99508929,0 L16.0049107,0 C17.1067681,0 18,0.892622799 18,1.99508929 L18,16.0049107 C18,17.1067681 17.1073772,18 16.0049107,18 L1.99508929,18 C0.893231902,18 0,17.1073772 0,16.0049107 L0,1.99508929 Z M9,9 C10.925,9 12.5,7.425 12.5,5.5 C12.5,3.575 10.925,2 9,2 C7.075,2 5.5,3.575 5.5,5.5 C5.5,7.425 7.075,9 9,9 Z M9,10.75 C6.6375,10.75 2,11.8875 2,14.25 L2,16 L16,16 L16,14.25 C16,11.8875 11.3625,10.75 9,10.75 Z" id="icon/hover/user"></path>
                    </g>
                </g>
            </g>
        </g>
    </g>
</svg>