<?xml version="1.0" encoding="UTF-8"?>
<svg width="23px" height="21px" viewBox="0 0 23 21" version="1.1" xmlns="http://www.w3.org/2000/svg" xmlns:xlink="http://www.w3.org/1999/xlink">
    <!-- Generator: Sketch 39.1 (31720) - http://www.bohemiancoding.com/sketch -->
    <title>icon/add</title>
    <desc>Created with Sketch.</desc>
    <defs></defs>
    <g id="Page-1" stroke="none" stroke-width="1" fill="none" fill-rule="evenodd">
        <g id="icon/add" fill="#C0CCDA">
            <path d="M10.7468354,9.625 L1.87329175,9.625 C1.38726159,9.625 1,10.0167508 1,10.5 C1,10.9866183 1.39098603,11.375 1.87329175,11.375 L10.7468354,11.375 L10.7468354,20.1110694 C10.7468354,20.599249 11.1435452,21 11.6329114,21 C12.1256894,21 12.5189873,20.6020122 12.5189873,20.1110694 L12.5189873,11.375 L21.392531,11.375 C21.8785612,11.375 22.2658228,10.9832492 22.2658228,10.5 C22.2658228,10.0133817 21.8748368,9.625 21.392531,9.625 L12.5189873,9.625 L12.5189873,0.888930598 C12.5189873,0.400750995 12.1222776,0 11.6329114,0 C11.1401334,0 10.7468354,0.397987785 10.7468354,0.888930598 L10.7468354,9.625 Z" id="icon-add"></path>
        </g>
    </g>
</svg>