<?xml version="1.0" encoding="UTF-8"?>
<svg width="16px" height="16px" viewBox="0 0 16 16" version="1.1" xmlns="http://www.w3.org/2000/svg" xmlns:xlink="http://www.w3.org/1999/xlink">
    <!-- Generator: Sketch 39.1 (31720) - http://www.bohemiancoding.com/sketch -->
    <title>icon/page normal</title>
    <desc>Created with Sketch.</desc>
    <defs></defs>
    <g id="Page-1" stroke="none" stroke-width="1" fill="none" fill-rule="evenodd">
        <g id="icon/page-normal" fill="#697B8C">
            <path d="M14.2222222,0 L1.77777778,0 C0.8,0 0,0.8 0,1.77777778 L0,14.2222222 C0,15.2 0.8,16 1.77777778,16 L14.2222222,16 C15.2,16 16,15.2 16,14.2222222 L16,1.77777778 C16,0.8 15.2,0 14.2222222,0 L14.2222222,0 Z M12.4444444,5.33333333 L3.55555556,5.33333333 L3.55555556,3.55555556 L12.4444444,3.55555556 L12.4444444,5.33333333 L12.4444444,5.33333333 Z M12.4444444,8.88888889 L3.55555556,8.88888889 L3.55555556,7.11111111 L12.4444444,7.11111111 L12.4444444,8.88888889 L12.4444444,8.88888889 Z M9.77777778,12.4444444 L3.55555556,12.4444444 L3.55555556,10.6666667 L9.77777778,10.6666667 L9.77777778,12.4444444 L9.77777778,12.4444444 Z" id="icon/misson-copy"></path>
        </g>
    </g>
</svg>